# File created by Blade
# Date/Time:  Fri Jan 16 14:33:41 2015
# Frame Rate: 120.000 fps
#------------------------------------------------------
:FULLY-SPECIFIED
:DEGREES
3884
root 19.257919 35.624483 -24.881838 -171.475478 -6.080028 -178.792570
Spine -15.083871 -1.974352 0.684519
Head 12.049565 24.731803 1.395958
LeftShoulder -11.960381 -28.794348 21.051379
LeftArm 3.024434 1.052188 -5.572351
LeftForeArm 7.985164 -0.000000 -1.828481
LeftHand -5.481608 0.000000 -12.811412
LeftHandThumb1 -26.253704 0.000000 33.147579
RightShoulder -11.044988 -10.080664 -9.520975
RightArm 5.285871 50.487511 17.081340
RightForeArm -26.319809 -0.000000 11.577681
RightHand -8.515504 -0.000000 1.440226
RightHandThumb1 -24.326973 -0.000000 -32.862282
LeftUpLeg 0.309543 6.617219 1.569454
LeftLeg -5.981257 -0.000000 0.000000
LeftFoot -20.348052 25.380593 -14.515128
LeftToeBase 25.144776 -0.000000 -0.000000
RightUpLeg 0.523347 -13.727857 3.937710
RightLeg -4.577118 -0.000000 0.000000
RightFoot -21.660319 -25.385060 17.621252
RightToeBase 22.092867 -0.000000 -0.000000
3885
root 19.255324 35.623903 -24.872840 -171.432317 -6.085387 -178.773862
Spine -15.056363 -2.015456 0.827876
Head 11.597183 26.392307 0.856461
LeftShoulder -11.912128 -28.833349 21.058822
LeftArm 2.710268 0.798944 -5.638327
LeftForeArm 7.811581 0.000000 -1.870614
LeftHand -5.517341 -0.000000 -12.864511
LeftHandThumb1 -26.253704 0.000000 33.147579
RightShoulder -10.945630 -10.009501 -9.631137
RightArm 4.961382 50.567845 16.910718
RightForeArm -25.282031 -0.000000 11.792209
RightHand -8.530747 0.000000 1.396406
RightHandThumb1 -24.326973 -0.000000 -32.862282
LeftUpLeg 0.255471 6.607871 1.575638
LeftLeg -5.994568 -0.000000 0.000000
LeftFoot -20.356686 25.408707 -14.468311
LeftToeBase 25.229903 -0.000000 -0.000000
RightUpLeg 0.463834 -13.716035 3.963399
RightLeg -4.575954 -0.000000 0.000000
RightFoot -21.651215 -25.426864 17.619577
RightToeBase 21.934320 -0.000000 -0.000000
3886
root 19.251874 35.623272 -24.865845 -171.424606 -6.093213 -178.758693
Spine -14.959555 -2.041552 0.960723
Head 11.099038 28.081843 0.300429
LeftShoulder -11.964767 -28.648828 21.102807
LeftArm 2.543317 0.466353 -5.810307
LeftForeArm 7.396343 -0.000000 -1.956602
LeftHand -5.454255 -0.000000 -12.928804
LeftHandThumb1 -26.253704 0.000000 33.147579
RightShoulder -10.909554 -9.922766 -9.737765
RightArm 4.750020 50.703985 16.836125
RightForeArm -24.335293 -0.000000 11.990260
RightHand -8.852560 -0.000000 1.252347
RightHandThumb1 -24.326973 -0.000000 -32.862282
LeftUpLeg 0.241280 6.596910 1.583517
LeftLeg -6.008129 -0.000000 0.000000
LeftFoot -20.343660 25.428512 -14.426539
LeftToeBase 25.192848 -0.000000 -0.000000
RightUpLeg 0.444047 -13.725876 3.976658
RightLeg -4.578370 -0.000000 0.000000
RightFoot -21.644670 -25.416161 17.623647
RightToeBase 21.938133 -0.000000 -0.000000
3887
root 19.249097 35.623037 -24.857405 -171.415591 -6.122573 -178.754350
Spine -14.886820 -2.080324 1.073491
Head 10.523690 29.445786 -0.367322
LeftShoulder -11.883587 -28.474575 21.102990
LeftArm 2.258708 0.147261 -5.939068
LeftForeArm 6.905048 -0.000000 -2.037347
LeftHand -5.415619 0.000000 -12.962076
LeftHandThumb1 -26.253704 0.000000 33.147579
RightShoulder -10.783229 -9.862736 -9.857864
RightArm 4.345421 50.820253 16.633148
RightForeArm -23.248275 -0.000000 12.134750
RightHand -8.855948 -0.000000 1.119565
RightHandThumb1 -24.326973 -0.000000 -32.862282
LeftUpLeg 0.202173 6.568662 1.584704
LeftLeg -5.982811 -0.000000 0.000000
LeftFoot -20.364555 25.417633 -14.410089
LeftToeBase 25.239998 -0.000000 -0.000000
RightUpLeg 0.413179 -13.764280 3.984727
RightLeg -4.560191 -0.000000 0.000000
RightFoot -21.632999 -25.412401 17.593767
RightToeBase 21.939441 -0.000000 -0.000000
3888
root 19.246188 35.622630 -24.852457 -171.459810 -6.130949 -178.741865
Spine -14.728025 -2.089519 1.180349
Head 9.898077 30.777596 -1.044473
LeftShoulder -11.761567 -28.262801 21.076911
LeftArm 1.930182 -0.223502 -6.037463
LeftForeArm 6.302144 -0.000000 -2.122905
LeftHand -5.406974 -0.000000 -13.029506
LeftHandThumb1 -26.253704 0.000000 33.147579
RightShoulder -10.670918 -9.843836 -9.967359
RightArm 3.976797 51.022357 16.450787
RightForeArm -22.261686 -0.000000 12.176780
RightHand -8.737262 -0.000000 0.989037
RightHandThumb1 -24.326973 -0.000000 -32.862282
LeftUpLeg 0.232378 6.583889 1.596626
LeftLeg -5.976245 -0.000000 0.000000
LeftFoot -20.362761 25.412664 -14.358643
LeftToeBase 25.279893 -0.000000 -0.000000
RightUpLeg 0.447569 -13.766036 3.983430
RightLeg -4.554716 -0.000000 0.000000
RightFoot -21.629889 -25.428648 17.585143
RightToeBase 21.936403 -0.000000 -0.000000
3889
root 19.243802 35.623338 -24.846752 -171.515632 -6.152947 -178.736326
Spine -14.553006 -2.111868 1.270610
Head 9.301952 32.019476 -1.711159
LeftShoulder -11.628971 -28.061237 21.061619
LeftArm 1.606130 -0.570059 -6.144381
LeftForeArm 5.605179 -0.000000 -2.248394
LeftHand -5.413799 -0.000000 -13.068182
LeftHandThumb1 -26.253704 0.000000 33.147579
RightShoulder -10.548937 -9.866004 -10.092334
RightArm 3.624567 51.255767 16.324263
RightForeArm -21.134151 -0.000000 12.187200
RightHand -8.724113 -0.000000 0.776429
RightHandThumb1 -24.326973 -0.000000 -32.862282
LeftUpLeg 0.265064 6.569614 1.604279
LeftLeg -5.955887 -0.000000 0.000000
LeftFoot -20.356908 25.409199 -14.340172
LeftToeBase 25.231656 -0.000000 -0.000000
RightUpLeg 0.486963 -13.793725 3.976425
RightLeg -4.539720 -0.000000 0.000000
RightFoot -21.632602 -25.423061 17.602937
RightToeBase 21.951825 -0.000000 -0.000000
